<svg width="84" height="56" viewBox="0 0 84 56" fill="none" xmlns="http://www.w3.org/2000/svg">
<path d="M82 42C82 47.6202 80.8442 50.448 79.3199 51.9003C77.8103 53.3384 75.4521 53.893 71.8035 53.7012C68.8626 53.5467 65.4685 52.9385 61.5701 52.2399C60.6395 52.0731 59.6801 51.9012 58.6913 51.7291C53.6415 50.85 47.978 50 42 50C36.022 50 30.3585 50.85 25.3087 51.7291C24.3199 51.9012 23.3606 52.0731 22.4299 52.2399C18.5315 52.9385 15.1374 53.5467 12.1965 53.7012C8.54789 53.893 6.1897 53.3384 4.68013 51.9003C3.15582 50.448 2 47.6202 2 42C2 19.9086 19.9086 2 42 2C64.0914 2 82 19.9086 82 42Z" stroke="black" stroke-width="4"/>
<path d="M21 22L31 24.5" stroke="black" stroke-width="4" stroke-linecap="round"/>
<path d="M66 22L56 24.5" stroke="black" stroke-width="4" stroke-linecap="round"/>
</svg>
